<svg width="24" height="25" viewBox="0 0 24 25" fill="none" xmlns="http://www.w3.org/2000/svg">
<path fill-rule="evenodd" clip-rule="evenodd" d="M12.0001 2.22044C10.6751 2.22044 9.40435 2.7468 8.46742 3.68373C7.53049 4.62066 7.00413 5.89141 7.00413 7.21643C7.00413 8.54145 7.53049 9.8122 8.46742 10.7491C9.40435 11.6861 10.6751 12.2124 12.0001 12.2124C13.3251 12.2124 14.5959 11.6861 15.5328 10.7491C16.4698 9.8122 16.9961 8.54145 16.9961 7.21643C16.9961 5.89141 16.4698 4.62066 15.5328 3.68373C14.5959 2.7468 13.3251 2.22044 12.0001 2.22044ZM4.78369 7.21643C4.78369 5.30251 5.54399 3.46699 6.89734 2.11364C8.25068 0.7603 10.0862 0 12.0001 0C13.914 0 15.7496 0.7603 17.1029 2.11364C18.4563 3.46699 19.2166 5.30251 19.2166 7.21643C19.2166 9.13035 18.4563 10.9659 17.1029 12.3192C15.7496 13.6726 13.914 14.4329 12.0001 14.4329C10.0862 14.4329 8.25068 13.6726 6.89734 12.3192C5.54399 10.9659 4.78369 9.13035 4.78369 7.21643Z" fill="#CBCBCB"/>
<path fill-rule="evenodd" clip-rule="evenodd" d="M12 14.4328C7.15389 14.4328 3.22038 17.4771 2.24449 21.3839C2.2195 21.4759 2.21949 21.5728 2.24447 21.6647C2.26945 21.7566 2.31852 21.8402 2.3866 21.9068C2.54203 22.0734 2.80405 22.2044 3.11935 22.2044H20.8829C21.196 22.2044 21.4602 22.0734 21.6145 21.9068C21.6822 21.8402 21.7309 21.7568 21.7557 21.6651C21.7805 21.5734 21.7804 21.4767 21.7555 21.385C20.7807 17.476 16.8461 14.4328 12 14.4328ZM0.0906679 20.8466C1.34189 15.8328 6.26238 12.2124 12 12.2124C17.7387 12.2124 22.6581 15.8317 23.9093 20.8466C24.4289 22.9271 22.6215 24.4248 20.8818 24.4248H3.11824C1.37852 24.4248 -0.428915 22.926 0.0906679 20.8466Z" fill="#CBCBCB"/>
</svg>
