<svg width="24" height="29" viewBox="0 0 24 29" fill="none" xmlns="http://www.w3.org/2000/svg">
<path fill-rule="evenodd" clip-rule="evenodd" d="M5.44327 6.91571H3.60576C2.99363 6.91573 2.40424 7.14768 1.95627 7.56485C1.50831 7.98202 1.23504 8.55343 1.19149 9.16401L0.00613343 25.7617C-0.017512 26.0932 0.0273716 26.4261 0.137988 26.7395C0.248604 27.0529 0.422582 27.3402 0.64908 27.5834C0.875579 27.8267 1.14975 28.0207 1.45449 28.1533C1.75924 28.2859 2.08804 28.3544 2.42041 28.3544H21.5797C21.912 28.3542 22.2407 28.2856 22.5454 28.1529C22.85 28.0202 23.1241 27.8262 23.3505 27.583C23.577 27.3398 23.751 27.0526 23.8617 26.7393C23.9724 26.4259 24.0174 26.0932 23.994 25.7617L22.8086 9.16401C22.7651 8.55343 22.4918 7.98202 22.0438 7.56485C21.5959 7.14768 21.0065 6.91573 20.3943 6.91571H18.57V6.56993C18.57 4.82747 17.8778 3.15639 16.6457 1.92429C15.4136 0.692187 13.7425 0 12.0001 0C8.50416 0 5.27314 2.78427 5.43013 6.56993L5.44327 6.91571ZM18.57 8.99042V14.1772C18.57 14.4523 18.4607 14.7162 18.2661 14.9107C18.0716 15.1053 17.8077 15.2146 17.5326 15.2146C17.2575 15.2146 16.9936 15.1053 16.7991 14.9107C16.6046 14.7162 16.4953 14.4523 16.4953 14.1772V8.99042H7.50484V14.1772C7.50484 14.4523 7.39555 14.7162 7.201 14.9107C7.00646 15.1053 6.74261 15.2146 6.46748 15.2146C6.19236 15.2146 5.9285 15.1053 5.73396 14.9107C5.53942 14.7162 5.43013 14.4523 5.43013 14.1772C5.43013 14.1772 5.52003 11.7533 5.49029 8.99042H3.60576C3.51845 8.99055 3.43441 9.0237 3.37053 9.08322C3.30665 9.14274 3.26765 9.22423 3.26136 9.31131L2.07531 25.909C2.07189 25.9564 2.07828 26.004 2.09407 26.0488C2.10987 26.0937 2.13473 26.1348 2.16712 26.1695C2.1995 26.2043 2.2387 26.2321 2.28228 26.251C2.32586 26.27 2.37288 26.2797 2.42041 26.2797H21.5797C21.6272 26.2795 21.6741 26.2696 21.7176 26.2506C21.7611 26.2316 21.8002 26.2038 21.8325 26.1691C21.8649 26.1344 21.8897 26.0934 21.9056 26.0486C21.9215 26.0039 21.928 25.9564 21.9248 25.909L20.7387 9.31131C20.7325 9.22423 20.6935 9.14274 20.6296 9.08322C20.5657 9.0237 20.4817 8.99055 20.3943 8.99042H18.57ZM16.4953 6.91571V6.56993C16.4953 5.37772 16.0217 4.23435 15.1786 3.39133C14.3356 2.54831 13.1923 2.07471 12.0001 2.07471C10.8078 2.07471 9.66447 2.54831 8.82146 3.39133C7.97844 4.23435 7.50484 5.37772 7.50484 6.56993V6.91571H16.4953Z" fill="#85278C"/>
</svg>
