<svg width="25" height="24" viewBox="0 0 25 24" fill="none" xmlns="http://www.w3.org/2000/svg">
<path d="M8.62613 10.2976H2.74594C2.15057 10.2971 1.57973 10.0604 1.15867 9.63945C0.73762 9.21853 0.500737 8.64777 0.5 8.0524V2.24524C0.500737 1.64987 0.73762 1.07911 1.15867 0.658183C1.57973 0.237259 2.15057 0.000552177 2.74594 0H8.62613C9.22137 0.000736239 9.79203 0.237524 10.2129 0.658429C10.6338 1.07933 10.8706 1.64999 10.8714 2.24524V8.0524C10.8706 8.64765 10.6338 9.2183 10.2129 9.63921C9.79203 10.0601 9.22137 10.2969 8.62613 10.2976ZM2.74594 1.73888C2.61163 1.73906 2.48287 1.79245 2.38784 1.88735C2.29281 1.98225 2.23925 2.11094 2.23888 2.24524V8.0524C2.23925 8.1867 2.29281 8.31539 2.38784 8.41029C2.48287 8.50519 2.61163 8.55858 2.74594 8.55876H8.62613C8.76036 8.55858 8.88905 8.50517 8.98397 8.41025C9.0789 8.31532 9.1323 8.18664 9.13249 8.0524V2.24524C9.1323 2.111 9.0789 1.98231 8.98397 1.88739C8.88905 1.79247 8.76036 1.73906 8.62613 1.73888H2.74594ZM8.65464 23.9965H2.77445C2.17902 23.9958 1.60819 23.7589 1.18715 23.3379C0.766115 22.9169 0.529254 22.346 0.528518 21.7506V15.9441C0.529254 15.3488 0.766138 14.778 1.18719 14.3571C1.60825 13.9361 2.17908 13.6994 2.77445 13.6989H8.65464C9.24965 13.7 9.81995 13.9369 10.2406 14.3578C10.6612 14.7787 10.8978 15.3491 10.8985 15.9441V21.7506C10.8979 22.3457 10.6614 22.9163 10.2408 23.3374C9.82018 23.7584 9.24977 23.9954 8.65464 23.9965ZM2.77445 15.4378C2.64015 15.4379 2.51139 15.4913 2.41636 15.5862C2.32133 15.6811 2.26776 15.8098 2.2674 15.9441V21.7506C2.26758 21.885 2.32106 22.0139 2.41611 22.1089C2.51116 22.204 2.64003 22.2575 2.77445 22.2576H8.65464C8.78895 22.2573 8.91763 22.2037 9.01254 22.1087C9.10744 22.0136 9.16082 21.8849 9.16101 21.7506V15.9441C9.16082 15.8099 9.10741 15.6812 9.01249 15.5863C8.91757 15.4914 8.78888 15.4379 8.65464 15.4378H2.77445ZM22.2513 23.9965H16.3711C15.7757 23.9958 15.2048 23.7589 14.7838 23.3379C14.3628 22.9169 14.1259 22.346 14.1252 21.7506V15.9441C14.1259 15.3488 14.3628 14.778 14.7838 14.3571C15.2049 13.9361 15.7757 13.6994 16.3711 13.6989H22.2513C22.8465 13.6996 23.4172 13.9364 23.8381 14.3573C24.259 14.7782 24.4958 15.3489 24.4965 15.9441V21.7506C24.496 22.346 24.2593 22.9168 23.8383 23.3378C23.4174 23.7589 22.8466 23.9958 22.2513 23.9965ZM16.3711 15.4412C16.2368 15.4414 16.108 15.4948 16.013 15.5897C15.918 15.6846 15.8644 15.8133 15.864 15.9476V21.7541C15.8642 21.8885 15.9177 22.0174 16.0127 22.1124C16.1078 22.2075 16.2367 22.2609 16.3711 22.2611H22.2513C22.3856 22.2608 22.5143 22.2072 22.6092 22.1122C22.7041 22.0171 22.7575 21.8884 22.7576 21.7541V15.9441C22.7575 15.8099 22.7041 15.6812 22.6091 15.5863C22.5142 15.4914 22.3855 15.4379 22.2513 15.4378L16.3711 15.4412ZM19.3147 10.2976C18.2983 10.2901 17.307 9.9818 16.4656 9.41166C15.6242 8.84152 14.9705 8.03504 14.5867 7.0939C14.203 6.15275 14.1065 5.11907 14.3094 4.12317C14.5123 3.12726 15.0056 2.21372 15.7269 1.49771C16.4482 0.781704 17.3654 0.295278 18.3628 0.0997576C19.3601 -0.0957627 20.3931 0.00837599 21.3314 0.399045C22.2696 0.789714 23.0713 1.44943 23.6351 2.29501C24.199 3.14059 24.5 4.1342 24.5 5.15056C24.4932 6.52018 23.9435 7.8312 22.9714 8.79609C21.9994 9.76098 20.6843 10.301 19.3147 10.2976ZM19.3147 1.74236C18.6423 1.7499 17.9871 1.95619 17.4317 2.33525C16.8763 2.7143 16.4454 3.24919 16.1933 3.87259C15.9412 4.49598 15.8791 5.18002 16.0149 5.83861C16.1507 6.49719 16.4783 7.10089 16.9564 7.57372C17.4346 8.04654 18.0419 8.36736 18.702 8.4958C19.362 8.62424 20.0453 8.55455 20.6659 8.2955C21.2864 8.03646 21.8165 7.59963 22.1893 7.04002C22.5621 6.4804 22.7611 5.823 22.7611 5.15056C22.7556 4.2414 22.3896 3.37156 21.7435 2.73194C21.0973 2.09232 20.2238 1.73518 19.3147 1.73888V1.74236Z" fill="#CBCBCB"/>
</svg>
