<svg width="25" height="26" viewBox="0 0 25 26" fill="none" xmlns="http://www.w3.org/2000/svg">
<path d="M24.2957 8.52803L22.3029 1.55955C22.0306 0.643625 21.1766 0 20.2235 0H17.1292V4.64153C17.1292 5.149 16.7083 5.56983 16.2008 5.56983C15.6934 5.56983 15.2725 5.149 15.2725 4.64153V0H9.70271V4.64153C9.70271 5.149 9.28187 5.56983 8.7744 5.56983C8.26693 5.56983 7.84609 5.149 7.84609 4.64153V0H4.75174C3.81106 0 2.95702 0.643625 2.67234 1.57193L0.691951 8.52803C0.394894 9.56774 0.444403 10.6198 0.828103 11.4739C1.10041 12.0803 1.48411 12.6126 1.9792 13.0334C2.83324 13.8008 3.93483 14.2216 5.07355 14.2216C6.59598 14.2216 7.94511 13.4914 8.78678 12.365C9.62844 13.4914 10.9776 14.2216 12.5 14.2216C14.0224 14.2216 15.3716 13.4914 16.2132 12.365C17.0549 13.4914 18.404 14.2216 19.9264 14.2216C21.0775 14.2216 22.1791 13.8008 23.0084 13.0458C23.5035 12.6126 23.8996 12.0803 24.1719 11.4739C24.5556 10.6198 24.6051 9.56774 24.308 8.52803H24.2957ZM12.4876 19.1726C10.9528 19.1726 9.70271 20.4227 9.70271 21.9575V25.3613H15.2725V21.9575C15.2725 20.4227 14.0224 19.1726 12.4876 19.1726Z" fill="#85278C"/>
<path d="M19.9142 15.4591C18.5526 15.4591 17.2406 14.9764 16.2009 14.1348C14.1215 15.8305 10.8539 15.8305 8.77448 14.1348C7.73478 14.9764 6.42277 15.4591 5.06126 15.4591C3.82352 15.4591 2.64766 15.0507 1.65747 14.3452V21.9573C1.65747 23.8387 3.17989 25.3611 5.06126 25.3611H7.84618V21.9573C7.84618 19.3952 9.92558 17.3158 12.4877 17.3158C15.0498 17.3158 17.1292 19.3952 17.1292 21.9573V25.3611H19.9142C21.7955 25.3611 23.3179 23.8387 23.3179 21.9573V14.3452C22.3401 15.0507 21.1643 15.4591 19.9142 15.4591Z" fill="#85278C"/>
</svg>
