<svg width="15" height="17" viewBox="0 0 15 17" fill="none" xmlns="http://www.w3.org/2000/svg">
<path d="M2 8.62523V11.6252C2 12.2477 2.5025 12.7502 3.125 12.7502C3.7475 12.7502 4.25 12.2477 4.25 11.6252V8.62523C4.25 8.00273 3.7475 7.50023 3.125 7.50023C2.5025 7.50023 2 8.00273 2 8.62523ZM6.5 8.62523V11.6252C6.5 12.2477 7.0025 12.7502 7.625 12.7502C8.2475 12.7502 8.75 12.2477 8.75 11.6252V8.62523C8.75 8.00273 8.2475 7.50023 7.625 7.50023C7.0025 7.50023 6.5 8.00273 6.5 8.62523ZM1.625 16.5002H13.625C14.2475 16.5002 14.75 15.9977 14.75 15.3752C14.75 14.7527 14.2475 14.2502 13.625 14.2502H1.625C1.0025 14.2502 0.5 14.7527 0.5 15.3752C0.5 15.9977 1.0025 16.5002 1.625 16.5002ZM11 8.62523V11.6252C11 12.2477 11.5025 12.7502 12.125 12.7502C12.7475 12.7502 13.25 12.2477 13.25 11.6252V8.62523C13.25 8.00273 12.7475 7.50023 12.125 7.50023C11.5025 7.50023 11 8.00273 11 8.62523ZM6.9275 1.11773L1.0025 4.23773C0.695 4.39523 0.5 4.71773 0.5 5.06273C0.5 5.58023 0.92 6.00023 1.4375 6.00023H13.82C14.33 6.00023 14.75 5.58023 14.75 5.06273C14.75 4.71773 14.555 4.39523 14.2475 4.23773L8.3225 1.11773C7.8875 0.885234 7.3625 0.885234 6.9275 1.11773Z" fill="#CBCBCB"/>
</svg>
