<svg width="26" height="27" viewBox="0 0 26 27" fill="none" xmlns="http://www.w3.org/2000/svg">
<path d="M20.3649 26.5625H5.73987C2.64612 26.5625 0.114868 24.0312 0.114868 20.9375V20.75L0.677368 5.75C0.771118 2.65625 3.30237 0.3125 6.30237 0.3125H19.8024C22.8024 0.3125 25.3336 2.65625 25.4274 5.75L25.9899 20.75C26.0836 22.25 25.5211 23.6562 24.4899 24.7812C23.4586 25.9062 22.0524 26.5625 20.5524 26.5625H20.3649ZM6.30237 2.1875C4.23987 2.1875 2.64612 3.78125 2.55237 5.75L1.98987 20.9375C1.98987 23 3.67737 24.6875 5.73987 24.6875H20.5524C21.5836 24.6875 22.5211 24.2188 23.1774 23.4688C23.8336 22.7188 24.2086 21.7812 24.2086 20.75L23.6461 5.75C23.5524 3.6875 21.9586 2.1875 19.8961 2.1875H6.30237Z" fill="white"/>
<path d="M13.0524 11.5625C9.39612 11.5625 6.48987 8.65625 6.48987 5C6.48987 4.4375 6.86487 4.0625 7.42737 4.0625C7.98987 4.0625 8.36487 4.4375 8.36487 5C8.36487 7.625 10.4274 9.6875 13.0524 9.6875C15.6774 9.6875 17.7399 7.625 17.7399 5C17.7399 4.4375 18.1149 4.0625 18.6774 4.0625C19.2399 4.0625 19.6149 4.4375 19.6149 5C19.6149 8.65625 16.7086 11.5625 13.0524 11.5625Z" fill="white"/>
</svg>
