<svg width="17" height="18" viewBox="0 0 17 18" fill="none" xmlns="http://www.w3.org/2000/svg">
<path d="M8.50003 11.5857C9.94447 11.5857 11.1154 10.4148 11.1154 8.97037C11.1154 7.52593 9.94447 6.35498 8.50003 6.35498C7.05559 6.35498 5.88464 7.52593 5.88464 8.97037C5.88464 10.4148 7.05559 11.5857 8.50003 11.5857Z" fill="black"/>
<path d="M9.15388 8.31641H7.84619V9.6241H9.15388V8.31641Z" fill="white"/>
<path d="M2.61538 5.70098C4.05982 5.70098 5.23077 4.53004 5.23077 3.0856C5.23077 1.64116 4.05982 0.470215 2.61538 0.470215C1.17095 0.470215 0 1.64116 0 3.0856C0 4.53004 1.17095 5.70098 2.61538 5.70098Z" fill="black"/>
<path d="M3.26924 2.43164H1.96155V3.73933H3.26924V2.43164Z" fill="white"/>
<path d="M8.50003 17.47C9.94447 17.47 11.1154 16.2991 11.1154 14.8546C11.1154 13.4102 9.94447 12.2393 8.50003 12.2393C7.05559 12.2393 5.88464 13.4102 5.88464 14.8546C5.88464 16.2991 7.05559 17.47 8.50003 17.47Z" fill="black"/>
<path d="M9.15388 14.2012H7.84619V15.5089H9.15388V14.2012Z" fill="white"/>
<path d="M2.61538 11.5857C4.05982 11.5857 5.23077 10.4148 5.23077 8.97037C5.23077 7.52593 4.05982 6.35498 2.61538 6.35498C1.17095 6.35498 0 7.52593 0 8.97037C0 10.4148 1.17095 11.5857 2.61538 11.5857Z" fill="black"/>
<path d="M3.26924 8.31641H1.96155V9.6241H3.26924V8.31641Z" fill="white"/>
<path d="M2.61538 17.47C4.05982 17.47 5.23077 16.2991 5.23077 14.8546C5.23077 13.4102 4.05982 12.2393 2.61538 12.2393C1.17095 12.2393 0 13.4102 0 14.8546C0 16.2991 1.17095 17.47 2.61538 17.47Z" fill="black"/>
<path d="M3.26924 14.2012H1.96155V15.5089H3.26924V14.2012Z" fill="white"/>
<path d="M14.3847 5.70098C15.8291 5.70098 17.0001 4.53004 17.0001 3.0856C17.0001 1.64116 15.8291 0.470215 14.3847 0.470215C12.9402 0.470215 11.7693 1.64116 11.7693 3.0856C11.7693 4.53004 12.9402 5.70098 14.3847 5.70098Z" fill="black"/>
<path d="M15.0384 2.43164H13.7307V3.73933H15.0384V2.43164Z" fill="white"/>
<path d="M8.50003 5.70098C9.94447 5.70098 11.1154 4.53004 11.1154 3.0856C11.1154 1.64116 9.94447 0.470215 8.50003 0.470215C7.05559 0.470215 5.88464 1.64116 5.88464 3.0856C5.88464 4.53004 7.05559 5.70098 8.50003 5.70098Z" fill="black"/>
<path d="M9.15388 2.43164H7.84619V3.73933H9.15388V2.43164Z" fill="white"/>
<path d="M14.3847 11.5857C15.8291 11.5857 17.0001 10.4148 17.0001 8.97037C17.0001 7.52593 15.8291 6.35498 14.3847 6.35498C12.9402 6.35498 11.7693 7.52593 11.7693 8.97037C11.7693 10.4148 12.9402 11.5857 14.3847 11.5857Z" fill="black"/>
<path d="M15.0384 8.31641H13.7307V9.6241H15.0384V8.31641Z" fill="white"/>
<path d="M14.3847 17.47C15.8291 17.47 17.0001 16.2991 17.0001 14.8546C17.0001 13.4102 15.8291 12.2393 14.3847 12.2393C12.9402 12.2393 11.7693 13.4102 11.7693 14.8546C11.7693 16.2991 12.9402 17.47 14.3847 17.47Z" fill="black"/>
<path d="M15.0384 14.2012H13.7307V15.5089H15.0384V14.2012Z" fill="white"/>
</svg>
