<svg width="18" height="18" viewBox="0 0 18 18" fill="none" xmlns="http://www.w3.org/2000/svg">
<path d="M10.7045 16.5918H2.28688C2.19544 16.6026 2.10303 16.6026 2.01158 16.5918C1.91571 16.5779 1.82368 16.5446 1.74119 16.4938C1.65869 16.443 1.58747 16.3758 1.53192 16.2965C1.47636 16.2171 1.43765 16.1272 1.41817 16.0323C1.39869 15.9374 1.39885 15.8395 1.41864 15.7447C1.6614 14.6131 2.1545 13.5502 2.86174 12.6341C3.56898 11.718 4.47241 10.9719 5.5057 10.4506C7.16196 9.59087 9.07711 9.37221 10.8845 9.83647C11.3892 9.96642 11.8817 10.14 12.3563 10.3553C12.4524 10.3948 12.5562 10.4124 12.66 10.4068C12.7638 10.4012 12.865 10.3725 12.9563 10.3228C13.0476 10.2731 13.1266 10.2036 13.1877 10.1195C13.2488 10.0354 13.2903 9.93868 13.3092 9.83647C13.3373 9.67458 13.3083 9.50795 13.2272 9.36505C13.1461 9.22215 13.0179 9.11183 12.8645 9.05294C12.5469 8.90471 12.2186 8.77765 11.8798 8.64L12.1763 8.38588C12.6208 7.98461 12.9808 7.49865 13.2351 6.95647C13.5402 6.3566 13.7123 5.698 13.7397 5.02557C13.7671 4.35314 13.6492 3.68271 13.3939 3.06C13.1351 2.36778 12.7178 1.74578 12.1754 1.24383C11.633 0.741873 10.9806 0.373911 10.2704 0.169412C9.99511 0.0952941 9.71982 0.0847059 9.45511 0H9.34923C9.34923 0 9.34923 0 9.2857 0C9.22217 0 9.22217 0 9.21158 0H8.78806C8.78806 0 8.78805 0 8.71394 0C8.63982 0 8.661 0 8.65041 0H8.47041C8.33441 0.0287269 8.19631 0.0464314 8.05747 0.0529412C7.34073 0.191115 6.66531 0.492117 6.08335 0.932719C5.50139 1.37332 5.02844 1.94174 4.701 2.59412C4.25816 3.44693 4.09516 4.41755 4.23511 5.36824C4.31571 6.01031 4.52455 6.62964 4.84923 7.18941C5.12271 7.67635 5.48134 8.11029 5.90806 8.47059C6.03511 8.58706 6.03511 8.58706 5.90806 8.65059C5.47401 8.80856 5.05276 8.99971 4.64806 9.22235C3.64175 9.75291 2.74671 10.4718 2.01158 11.34C0.969679 12.5409 0.280687 14.0068 0.0209961 15.5753V16.1682C0.0209961 16.2953 0.0209961 16.4329 0.0951138 16.56C0.219435 16.9393 0.44841 17.2757 0.755643 17.5305C1.06288 17.7852 1.43586 17.948 1.83158 18H10.9375C10.9375 18 11.0222 18 11.0645 17.9471C11.1496 17.9113 11.2268 17.859 11.2916 17.7932C11.3563 17.7274 11.4074 17.6494 11.4419 17.5637C11.4763 17.4781 11.4935 17.3864 11.4923 17.2941C11.4912 17.2018 11.4717 17.1106 11.4351 17.0259C11.3765 16.8843 11.2737 16.7656 11.142 16.6873C11.0103 16.6091 10.8568 16.5755 10.7045 16.5918ZM5.62217 4.78588C5.62017 4.11967 5.81522 3.46775 6.1828 2.91211C6.55038 2.35648 7.07407 1.92196 7.68798 1.66322C8.30189 1.40447 8.97861 1.33305 9.63302 1.45795C10.2874 1.58284 10.8903 1.89848 11.3657 2.36514C11.8412 2.8318 12.168 3.42865 12.3052 4.0806C12.4423 4.73255 12.3835 5.41049 12.1363 6.02913C11.889 6.64778 11.4644 7.17949 10.9157 7.55739C10.3671 7.93529 9.71889 8.1425 9.05276 8.15294C8.60604 8.15853 8.16262 8.07573 7.74802 7.90928C7.33343 7.74284 6.95584 7.49604 6.63699 7.1831C6.31815 6.87016 6.06434 6.49725 5.89018 6.08584C5.71601 5.67443 5.62493 5.23263 5.62217 4.78588Z" fill="#232323"/>
<path d="M17.1208 13.9553C16.602 13.9553 16.062 13.9553 15.5432 13.9553C15.3844 13.9553 15.3526 13.9553 15.3632 13.7541V12.1024C15.3688 11.9792 15.3471 11.8562 15.2997 11.7424C15.2374 11.5912 15.1241 11.4667 14.9795 11.3904C14.8349 11.3141 14.6681 11.291 14.5082 11.325C14.3483 11.359 14.2053 11.448 14.1042 11.5765C14.0032 11.705 13.9503 11.8648 13.955 12.0283V13.8177C13.955 13.9341 13.955 13.9659 13.8173 13.9553H12.0914C11.9683 13.9507 11.8456 13.9724 11.7314 14.0188C11.5911 14.0855 11.4761 14.1958 11.4036 14.3332C11.331 14.4706 11.3049 14.6277 11.3291 14.7812C11.3563 14.9421 11.4389 15.0885 11.5627 15.1948C11.6864 15.3012 11.8435 15.3609 12.0067 15.3636H13.7644C13.9126 15.3636 13.9655 15.3636 13.9655 15.5436C13.9655 16.073 13.9655 16.6024 13.9655 17.1212C13.9373 17.3107 13.9786 17.5041 14.0817 17.6656C14.1848 17.8271 14.3429 17.9459 14.5267 18H14.8232C14.9993 17.9838 15.162 17.8995 15.2767 17.765C15.3915 17.6305 15.4491 17.4564 15.4373 17.28V15.6388C15.4373 15.4271 15.4373 15.4165 15.6597 15.4165H17.2585C17.4345 15.4317 17.6097 15.3786 17.7476 15.2682C17.8856 15.1579 17.9759 14.9986 17.9997 14.8236V14.5377C17.9498 14.3499 17.8328 14.1869 17.6708 14.0796C17.5089 13.9723 17.3132 13.9281 17.1208 13.9553Z" fill="#232323"/>
<path d="M8.71392 0H8.65039C8.66032 0.00470891 8.67117 0.00715177 8.68216 0.00715177C8.69314 0.00715177 8.70399 0.00470891 8.71392 0Z" fill="#767676"/>
<path d="M8.71392 0C8.70399 0.00470891 8.69314 0.00715177 8.68216 0.00715177C8.67117 0.00715177 8.66032 0.00470891 8.65039 0C8.65039 0 8.69274 0 8.71392 0Z" fill="#767676"/>
<path d="M9.28554 0H9.21143C9.22297 0.00561763 9.23564 0.00853679 9.24848 0.00853679C9.26132 0.00853679 9.274 0.00561763 9.28554 0Z" fill="#5C5C5C"/>
<path d="M9.28554 0C9.274 0.00561763 9.26132 0.00853679 9.24848 0.00853679C9.23564 0.00853679 9.22297 0.00561763 9.21143 0C9.21143 0 9.25378 0 9.28554 0Z" fill="#5C5C5C"/>
</svg>
