<svg width="18" height="17" viewBox="0 0 18 17" fill="none" xmlns="http://www.w3.org/2000/svg">
<path d="M9 16.2065C5.67137 16.2065 2.91807 15.4196 1.63686 14.1023C-0.545618 11.8604 -0.545618 4.34694 1.63686 2.10414C2.91807 0.786915 5.67047 0 9 0C12.3295 0 15.0819 0.786915 16.3631 2.10414C18.5456 4.34604 18.5456 11.8595 16.3631 14.1023C15.0819 15.4196 12.3295 16.2065 9 16.2065ZM9 1.80072C6.27551 1.80072 3.83463 2.42737 2.92797 3.35924C1.41807 4.91147 1.41807 11.295 2.92797 12.8472C3.83463 13.7791 6.27551 14.4058 9 14.4058C11.7245 14.4058 14.1654 13.7791 15.072 12.8472C16.5819 11.295 16.5819 4.91147 15.072 3.35924C14.1654 2.42737 11.7245 1.80072 9 1.80072Z" fill="#CBCBCB"/>
<path d="M8.99977 9.90386C7.38092 9.90386 4.69154 7.66646 3.90643 6.98039C3.81239 6.90422 3.73467 6.80988 3.67792 6.703C3.62116 6.59612 3.58654 6.4789 3.5761 6.35834C3.56567 6.23777 3.57965 6.11635 3.61721 6.00131C3.65477 5.88627 3.71513 5.77998 3.79469 5.6888C3.87425 5.59761 3.97137 5.5234 4.08026 5.4706C4.18914 5.4178 4.30756 5.38749 4.42842 5.38148C4.54929 5.37547 4.67012 5.39389 4.78371 5.43564C4.89729 5.47738 5.0013 5.5416 5.0895 5.62444C6.46345 6.82192 8.36141 8.10314 8.99977 8.10314C9.63812 8.10314 11.5361 6.82102 12.91 5.62444C12.9982 5.5416 13.1022 5.47738 13.2158 5.43564C13.3294 5.39389 13.4503 5.37547 13.5711 5.38148C13.692 5.38749 13.8104 5.4178 13.9193 5.4706C14.0282 5.5234 14.1253 5.59761 14.2048 5.6888C14.2844 5.77998 14.3448 5.88627 14.3823 6.00131C14.4199 6.11635 14.4339 6.23777 14.4234 6.35834C14.413 6.4789 14.3784 6.59612 14.3216 6.703C14.2649 6.80988 14.1871 6.90422 14.0931 6.98039C13.308 7.66646 10.6177 9.90386 8.99977 9.90386Z" fill="#CBCBCB"/>
</svg>
