<svg width="18" height="17" viewBox="0 0 18 17" fill="none" xmlns="http://www.w3.org/2000/svg">
<path d="M16.5434 11.6559L13.0434 10.1559C12.8939 10.0922 12.7277 10.0787 12.5699 10.1176C12.4121 10.1565 12.2712 10.2456 12.1684 10.3715L10.6184 12.2653C8.18586 11.1183 6.22819 9.16065 5.08125 6.72807L6.975 5.17807C7.10115 5.07547 7.19044 4.93456 7.22934 4.77668C7.26825 4.6188 7.25466 4.45254 7.19063 4.30307L5.69063 0.803069C5.62035 0.641946 5.49605 0.510395 5.33917 0.4311C5.18229 0.351804 5.00266 0.329733 4.83125 0.368694L1.58125 1.11869C1.41599 1.15686 1.26855 1.24991 1.16298 1.38266C1.05741 1.51541 0.999962 1.68002 1 1.84963C1 9.86526 7.49687 16.3496 15.5 16.3496C15.6697 16.3497 15.8343 16.2923 15.9672 16.1867C16.1 16.0812 16.1931 15.9337 16.2312 15.7684L16.9812 12.5184C17.02 12.3461 16.9974 12.1658 16.9175 12.0084C16.8376 11.8509 16.7053 11.7263 16.5434 11.6559Z" fill="white" stroke="#505050" stroke-width="0.03125"/>
</svg>
