<svg width="29" height="27" viewBox="0 0 29 27" fill="none" xmlns="http://www.w3.org/2000/svg">
<path d="M25.515 7.375H23.3658C23.8853 6.64219 24.2025 5.73984 24.2025 4.75C24.2025 2.33828 22.3759 0.375 20.1283 0.375C17.815 0.375 16.4751 1.76406 14.14 5.61406C11.8048 1.76406 10.465 0.375 8.1517 0.375C5.90405 0.375 4.07748 2.33828 4.07748 4.75C4.07748 5.73984 4.39467 6.64219 4.9142 7.375H2.76498C1.31577 7.375 0.139984 8.55078 0.139984 10V15.25C0.139984 15.7312 0.533734 16.125 1.01498 16.125H1.88998V24C1.88998 25.4492 3.06577 26.625 4.51498 26.625H23.765C25.2142 26.625 26.39 25.4492 26.39 24V16.125H27.265C27.7462 16.125 28.14 15.7312 28.14 15.25V10C28.14 8.55078 26.9642 7.375 25.515 7.375ZM15.2447 7.17812C17.9517 2.62266 18.854 2.125 20.1283 2.125C21.408 2.125 22.4525 3.30078 22.4525 4.75C22.4525 6.19922 21.408 7.375 20.1283 7.375H15.1244L15.2447 7.17812ZM8.1517 2.125C9.43139 2.125 10.3283 2.62266 13.0353 7.17812L13.1501 7.375H8.14623C6.86655 7.375 5.82202 6.19922 5.82202 4.75C5.82748 3.30078 6.87202 2.125 8.1517 2.125ZM10.64 24.875H4.51498C4.03373 24.875 3.63998 24.4813 3.63998 24V16.125H10.64V24.875ZM10.64 14.375H1.88998V10C1.88998 9.51875 2.28373 9.125 2.76498 9.125H10.64V14.375ZM15.89 24.875H12.39V9.125H15.89V24.875ZM24.64 24C24.64 24.4813 24.2462 24.875 23.765 24.875H17.64V16.125H24.64V24ZM26.39 14.375H17.64V9.125H25.515C25.9962 9.125 26.39 9.51875 26.39 10V14.375Z" fill="white"/>
</svg>
