<svg width="25" height="23" viewBox="0 0 25 23" fill="none" xmlns="http://www.w3.org/2000/svg">
<path d="M22.4154 3.15316C21.2317 1.81 19.5895 1.07031 17.7915 1.07031C15.2627 1.07031 13.6617 2.58062 12.7639 3.84766C12.531 4.17644 12.3329 4.50611 12.1665 4.81633C12.0001 4.50611 11.8021 4.17644 11.5691 3.84766C10.6713 2.58062 9.07032 1.07031 6.5415 1.07031C4.74347 1.07031 3.1013 1.81005 1.91752 3.1532C0.788395 4.43448 0.166504 6.15048 0.166504 7.98508C0.166504 9.98209 0.946176 11.8395 2.62018 13.8304C4.11629 15.6098 6.26864 17.4439 8.76104 19.5677C9.68977 20.3592 10.6502 21.1776 11.6727 22.0722L11.7034 22.0991C11.8359 22.2152 12.0012 22.2732 12.1665 22.2732C12.3318 22.2732 12.4971 22.2152 12.6296 22.0991L12.6603 22.0722C13.6828 21.1776 14.6432 20.3592 15.5721 19.5677C18.0644 17.4439 20.2167 15.6098 21.7128 13.8304C23.3868 11.8395 24.1665 9.98209 24.1665 7.98508C24.1665 6.15048 23.5446 4.43448 22.4154 3.15316ZM14.6599 18.4974C13.8593 19.1796 13.0353 19.8818 12.1665 20.6371C11.2977 19.8819 10.4737 19.1797 9.67294 18.4973C4.79518 14.3408 1.57275 11.5948 1.57275 7.98508C1.57275 6.49305 2.06986 5.10723 2.97254 4.08297C3.88557 3.04708 5.15302 2.47656 6.5415 2.47656C8.46943 2.47656 9.71569 3.66428 10.4216 4.66066C11.0549 5.55428 11.3853 6.45513 11.498 6.80092C11.5922 7.09038 11.8621 7.28627 12.1665 7.28627C12.4709 7.28627 12.7408 7.09038 12.835 6.80092C12.9477 6.45513 13.2781 5.55428 13.9114 4.66061C14.6173 3.66428 15.8636 2.47656 17.7915 2.47656C19.18 2.47656 20.4474 3.04708 21.3604 4.08297C22.2631 5.10723 22.7603 6.49305 22.7603 7.98508C22.7603 11.5948 19.5378 14.3408 14.6599 18.4974Z" fill="black" stroke="black" stroke-width="0.234375"/>
</svg>
