<svg width="22" height="22" viewBox="0 0 22 22" fill="none" xmlns="http://www.w3.org/2000/svg">
<path d="M19.25 8.75C19.25 4.20125 15.5487 0.5 11 0.5C6.45125 0.5 2.75 4.20125 2.75 8.75C2.75 8.75 0.5 9.7595 0.5 11V12.5C0.5 13.7405 1.5095 14.75 2.75 14.75H3.5C3.69891 14.75 3.88968 14.671 4.03033 14.5303C4.17098 14.3897 4.25 14.1989 4.25 14V8.75C4.25 5.0285 7.2785 2 11 2C14.7215 2 17.75 5.0285 17.75 8.75V14C17.75 14.1989 17.829 14.3897 17.9697 14.5303C18.1103 14.671 18.3011 14.75 18.5 14.75H19.25C20.4905 14.75 21.5 13.7405 21.5 12.5V11C21.5 9.7595 19.25 8.75 19.25 8.75Z" fill="#88288F"/>
<path d="M14 7.25H8C7.40326 7.25 6.83097 7.48705 6.40901 7.90901C5.98705 8.33097 5.75 8.90326 5.75 9.5V12.5C5.75 13.0967 5.98705 13.669 6.40901 14.091C6.83097 14.5129 7.40326 14.75 8 14.75H10.25L12.6095 16.8905C12.6443 16.9254 12.6857 16.953 12.7313 16.9718C12.7769 16.9906 12.8257 17.0002 12.875 17H12.8825C13.0925 17.0098 13.265 16.835 13.265 16.625C13.2651 16.5495 13.2424 16.4758 13.1998 16.4135L12.5 14.75H14C14.5967 14.75 15.169 14.5129 15.591 14.091C16.0129 13.669 16.25 13.0967 16.25 12.5V9.5C16.25 8.90326 16.0129 8.33097 15.591 7.90901C15.169 7.48705 14.5967 7.25 14 7.25ZM18.485 15.5C18.125 17.6248 16.2253 19.25 14 19.25H13.0422C12.782 18.8038 12.3035 18.5 11.75 18.5H10.25C9.85218 18.5 9.47064 18.658 9.18934 18.9393C8.90804 19.2206 8.75 19.6022 8.75 20C8.75 20.3978 8.90804 20.7794 9.18934 21.0607C9.47064 21.342 9.85218 21.5 10.25 21.5H11.75C12.3035 21.5 12.782 21.1962 13.0422 20.75H14C17.054 20.75 19.6287 18.455 20 15.5H18.485Z" fill="#88288F"/>
</svg>
