<svg width="18" height="13" viewBox="0 0 18 13" fill="none" xmlns="http://www.w3.org/2000/svg">
<path d="M16.6969 4.31211C16.8187 4.21523 17 4.30586 17 4.45898V10.8496C17 11.6777 16.3281 12.3496 15.5 12.3496H2.5C1.67188 12.3496 1 11.6777 1 10.8496V4.46211C1 4.30586 1.17812 4.21836 1.30312 4.31523C2.00312 4.85898 2.93125 5.54961 6.11875 7.86523C6.77813 8.34648 7.89062 9.35898 9 9.35273C10.1156 9.36211 11.25 8.32773 11.8844 7.86523C15.0719 5.54961 15.9969 4.85586 16.6969 4.31211ZM9 8.34961C9.725 8.36211 10.7688 7.43711 11.2937 7.05586C15.4406 4.04648 15.7562 3.78398 16.7125 3.03398C16.8937 2.89336 17 2.67461 17 2.44336V1.84961C17 1.02148 16.3281 0.349609 15.5 0.349609H2.5C1.67188 0.349609 1 1.02148 1 1.84961V2.44336C1 2.67461 1.10625 2.89023 1.2875 3.03398C2.24375 3.78086 2.55938 4.04648 6.70625 7.05586C7.23125 7.43711 8.275 8.36211 9 8.34961Z" fill="white" stroke="#505050" stroke-width="0.03125"/>
</svg>
