<svg width="38" height="38" viewBox="0 0 38 38" fill="none" xmlns="http://www.w3.org/2000/svg">
<rect x="0.834999" y="0.719971" width="36.33" height="36.3333" rx="18.165" fill="#F5F5F5"/>
<rect x="0.834999" y="0.719971" width="36.33" height="36.3333" rx="18.165" stroke="#C2C2C2"/>
<path d="M19.0017 15.6367C17.1923 15.6367 15.7204 17.1085 15.7204 18.9179C15.7204 20.7273 17.1923 22.1992 19.0017 22.1992C20.811 22.1992 22.2829 20.7273 22.2829 18.9179C22.2829 17.1085 20.811 15.6367 19.0017 15.6367ZM19.0017 15.6367C17.1923 15.6367 15.7204 17.1085 15.7204 18.9179C15.7204 20.7273 17.1923 22.1992 19.0017 22.1992C20.811 22.1992 22.2829 20.7273 22.2829 18.9179C22.2829 17.1085 20.811 15.6367 19.0017 15.6367ZM24.6579 10.8867H13.3454C12.0517 10.8867 11.0017 11.9367 11.0017 13.2304V24.5429C11.0017 25.8367 12.0517 26.8867 13.3454 26.8867H24.6579C25.9517 26.8867 27.0017 25.8367 27.0017 24.5429V13.2304C27.0017 11.9367 25.9517 10.8867 24.6579 10.8867ZM19.0017 23.1367C16.6767 23.1367 14.7829 21.2429 14.7829 18.9179C14.7829 16.5929 16.6767 14.6992 19.0017 14.6992C21.3266 14.6992 23.2204 16.5929 23.2204 18.9179C23.2204 21.2429 21.3266 23.1367 19.0017 23.1367ZM24.1579 14.6992C23.6423 14.6992 23.2204 14.2773 23.2204 13.7617C23.2204 13.246 23.6423 12.8242 24.1579 12.8242C24.6735 12.8242 25.0954 13.246 25.0954 13.7617C25.0954 14.2773 24.6735 14.6992 24.1579 14.6992ZM19.0017 15.6367C17.1923 15.6367 15.7204 17.1085 15.7204 18.9179C15.7204 20.7273 17.1923 22.1992 19.0017 22.1992C20.811 22.1992 22.2829 20.7273 22.2829 18.9179C22.2829 17.1085 20.811 15.6367 19.0017 15.6367ZM19.0017 15.6367C17.1923 15.6367 15.7204 17.1085 15.7204 18.9179C15.7204 20.7273 17.1923 22.1992 19.0017 22.1992C20.811 22.1992 22.2829 20.7273 22.2829 18.9179C22.2829 17.1085 20.811 15.6367 19.0017 15.6367ZM19.0017 15.6367C17.1923 15.6367 15.7204 17.1085 15.7204 18.9179C15.7204 20.7273 17.1923 22.1992 19.0017 22.1992C20.811 22.1992 22.2829 20.7273 22.2829 18.9179C22.2829 17.1085 20.811 15.6367 19.0017 15.6367Z" fill="#4B4B4B"/>
</svg>
