<svg width="18" height="18" viewBox="0 0 18 18" fill="none" xmlns="http://www.w3.org/2000/svg">
<path d="M9 0.140625C5.20049 0.140625 2.10938 3.23174 2.10938 7.03125C2.10938 8.87695 3.22759 11.2472 5.43294 14.0758C6.44332 15.3684 7.5375 16.5932 8.70841 17.7424C8.78692 17.8175 8.89137 17.8594 9 17.8594C9.10863 17.8594 9.21308 17.8175 9.29159 17.7424C10.4625 16.5932 11.5567 15.3684 12.5671 14.0758C14.7724 11.2472 15.8906 8.87695 15.8906 7.03125C15.8906 3.23174 12.7995 0.140625 9 0.140625ZM9 11.9531C6.28594 11.9531 4.07812 9.74531 4.07812 7.03125C4.07812 4.31719 6.28594 2.10938 9 2.10938C11.7141 2.10938 13.9219 4.31719 13.9219 7.03125C13.9219 9.74531 11.7141 11.9531 9 11.9531Z" fill="#CBCBCB"/>
<path d="M12.3776 6.43784L9.2838 3.62534C9.20615 3.55474 9.10497 3.51562 9.00002 3.51562C8.89508 3.51562 8.7939 3.55474 8.71624 3.62534L5.62249 6.43784C5.55041 6.50338 5.50323 6.59184 5.48894 6.6882C5.47465 6.78457 5.49414 6.88291 5.54409 6.96655C5.58351 7.03023 5.63874 7.08261 5.70442 7.11859C5.7701 7.15457 5.84398 7.17292 5.91886 7.17186H6.32815V9.84374C6.32815 9.95563 6.37259 10.0629 6.45171 10.142C6.53083 10.2212 6.63813 10.2656 6.75002 10.2656H7.7344C7.84629 10.2656 7.95359 10.2212 8.03271 10.142C8.11182 10.0629 8.15627 9.95563 8.15627 9.84374V8.29686C8.15627 8.18497 8.20072 8.07767 8.27984 7.99855C8.35895 7.91944 8.46626 7.87499 8.57815 7.87499H9.4219C9.53379 7.87499 9.64109 7.91944 9.72021 7.99855C9.79932 8.07767 9.84377 8.18497 9.84377 8.29686V9.84374C9.84377 9.95563 9.88822 10.0629 9.96734 10.142C10.0465 10.2212 10.1538 10.2656 10.2656 10.2656H11.25C11.3619 10.2656 11.4692 10.2212 11.5483 10.142C11.6275 10.0629 11.6719 9.95563 11.6719 9.84374V7.17186H12.0812C12.1561 7.17292 12.2299 7.15457 12.2956 7.11859C12.3613 7.08261 12.4165 7.03023 12.456 6.96655C12.5059 6.88291 12.5254 6.78457 12.5111 6.6882C12.4968 6.59184 12.4496 6.50338 12.3776 6.43784Z" fill="#CBCBCB"/>
</svg>
