<svg width="14" height="17" viewBox="0 0 14 17" fill="none" xmlns="http://www.w3.org/2000/svg">
<path d="M6.25938 15.9496C4.62813 13.9434 1 9.08086 1 6.34961C1 3.03586 3.68625 0.349609 7 0.349609C10.3125 0.349609 13 3.03586 13 6.34961C13 9.08086 9.34375 13.9434 7.74062 15.9496C7.35625 16.4277 6.64375 16.4277 6.25938 15.9496ZM7 8.34961C8.10313 8.34961 9 7.45273 9 6.34961C9 5.24648 8.10313 4.34961 7 4.34961C5.89687 4.34961 5 5.24648 5 6.34961C5 7.45273 5.89687 8.34961 7 8.34961Z" fill="white" stroke="#505050" stroke-width="0.03125"/>
</svg>
