<svg width="14" height="17" viewBox="0 0 14 17" fill="none" xmlns="http://www.w3.org/2000/svg">
<path fill-rule="evenodd" clip-rule="evenodd" d="M6.99996 9.69922C7.14318 9.69922 7.28053 9.75611 7.3818 9.85738C7.48307 9.95865 7.53996 10.096 7.53996 10.2392V11.6792C7.53996 11.8224 7.48307 11.9598 7.3818 12.0611C7.28053 12.1623 7.14318 12.2192 6.99996 12.2192C6.85674 12.2192 6.71939 12.1623 6.61812 12.0611C6.51685 11.9598 6.45996 11.8224 6.45996 11.6792V10.2392C6.45996 10.096 6.51685 9.95865 6.61812 9.85738C6.71939 9.75611 6.85674 9.69922 6.99996 9.69922Z" fill="#989898"/>
<path fill-rule="evenodd" clip-rule="evenodd" d="M7.0002 6.81926C5.86692 6.81926 4.83948 6.84374 3.82788 6.88982C2.8854 6.93302 2.09628 7.6703 1.96812 8.62286C1.86372 9.40046 1.7802 10.1766 1.7802 10.9593C1.7802 11.7419 1.86372 12.5181 1.96812 13.2957C2.09628 14.2482 2.8854 14.9855 3.82788 15.0287C4.83948 15.0748 5.86692 15.0993 7.0002 15.0993C8.13347 15.0993 9.16092 15.0748 10.1725 15.0287C11.115 14.9855 11.9041 14.2482 12.0323 13.2957C12.1367 12.5181 12.2202 11.7419 12.2202 10.9593C12.2202 10.1766 12.1367 9.40046 12.0323 8.62286C11.9041 7.6703 11.115 6.93374 10.1725 6.88982C9.11577 6.84168 8.05804 6.81815 7.0002 6.81926ZM3.7782 5.81126C4.80708 5.76374 5.8518 5.73926 7.0002 5.73926C8.14859 5.73926 9.19332 5.76374 10.2222 5.81126C11.704 5.87966 12.9071 7.02662 13.1022 8.47886C13.2095 9.27086 13.3002 10.1039 13.3002 10.9593C13.3002 11.8146 13.2095 12.6477 13.1029 13.4397C12.9071 14.8919 11.704 16.0389 10.2222 16.1073C9.19332 16.1548 8.14859 16.1793 7.0002 16.1793C5.8518 16.1793 4.80708 16.1548 3.7782 16.1073C2.29644 16.0396 1.09332 14.8919 0.898195 13.4397C0.790915 12.6477 0.700195 11.8146 0.700195 10.9593C0.700195 10.1039 0.790915 9.27158 0.898195 8.47886C1.09332 7.02662 2.29644 5.87966 3.7782 5.81126Z" fill="#989898"/>
<path fill-rule="evenodd" clip-rule="evenodd" d="M7.00021 1.77922C6.28413 1.77922 5.59737 2.06368 5.09103 2.57003C4.58468 3.07638 4.30021 3.76313 4.30021 4.47922V6.27922C4.30021 6.42244 4.24332 6.55979 4.14205 6.66106C4.04078 6.76233 3.90343 6.81922 3.76021 6.81922C3.617 6.81922 3.47965 6.76233 3.37838 6.66106C3.27711 6.55979 3.22021 6.42244 3.22021 6.27922V4.47922C3.22021 3.4767 3.61846 2.51524 4.32735 1.80636C5.03624 1.09747 5.9977 0.699219 7.00021 0.699219C8.00273 0.699219 8.96419 1.09747 9.67308 1.80636C10.382 2.51524 10.7802 3.4767 10.7802 4.47922V6.27922C10.7802 6.42244 10.7233 6.55979 10.6221 6.66106C10.5208 6.76233 10.3834 6.81922 10.2402 6.81922C10.097 6.81922 9.95965 6.76233 9.85838 6.66106C9.75711 6.55979 9.70021 6.42244 9.70021 6.27922V4.47922C9.70021 3.76313 9.41575 3.07638 8.9094 2.57003C8.40305 2.06368 7.7163 1.77922 7.00021 1.77922Z" fill="#989898"/>
</svg>
