<svg width="18" height="18" viewBox="0 0 18 18" fill="none" xmlns="http://www.w3.org/2000/svg">
<path d="M17.4579 13.9239C16.6666 12.2692 15.3177 11.1901 13.3751 10.7045C13.0875 10.6325 12.7817 10.7045 12.5478 10.9025L10.9471 12.2152C10.6413 12.4672 10.1916 12.5032 9.85 12.2872C8.15926 11.2441 6.77434 9.859 5.73124 8.16844C5.51524 7.8268 5.55124 7.37716 5.80324 7.07134L7.11616 5.4706C7.31398 5.23678 7.38598 4.93096 7.31398 4.64332C6.81034 2.68276 5.73124 1.33384 4.0765 0.542558C3.80668 0.416558 3.50104 0.416558 3.23122 0.560558C2.40394 1.0102 1.59448 1.51366 0.839023 2.0713C0.551383 2.28712 0.407383 2.64676 0.461383 3.00658C1.00102 6.22606 2.74558 9.60718 5.56942 12.431C8.39326 15.2549 11.7744 16.9814 14.9939 17.5391C15.3537 17.5931 15.7133 17.4491 15.9291 17.1614C16.4909 16.4023 16.9959 15.6027 17.4399 14.7692C17.5839 14.4994 17.5839 14.1938 17.4579 13.9239Z" fill="#CBCBCB"/>
</svg>
