<svg width="38" height="38" viewBox="0 0 38 38" fill="none" xmlns="http://www.w3.org/2000/svg">
<rect x="1.165" y="0.719971" width="36.33" height="36.3333" rx="18.165" fill="#F5F5F5"/>
<rect x="1.165" y="0.719971" width="36.33" height="36.3333" rx="18.165" stroke="#C2C2C2"/>
<path d="M19.3139 11.4022C21.2802 11.411 23.1641 12.1933 24.5583 13.58C25.705 14.7405 26.4411 16.2439 26.6545 17.8614C26.8679 19.4789 26.547 21.1218 25.7406 22.54C25.0924 23.6699 24.156 24.6076 23.0269 25.2573C21.8978 25.9069 20.6165 26.2453 19.3139 26.2378C18.6018 26.2427 17.8925 26.1469 17.2072 25.9533C17.5806 25.3489 17.8294 24.8067 17.9628 24.3533L18.4872 22.3178C18.6117 22.5667 18.8517 22.78 19.1983 22.9667C19.5539 23.1444 19.9094 23.2422 20.3006 23.2422C21.0739 23.2422 21.7672 23.02 22.3806 22.5755C23.011 22.1083 23.5026 21.4784 23.8028 20.7533C24.1462 19.9287 24.3157 19.042 24.3006 18.1489C24.3006 16.9933 23.8561 16.0067 22.9761 15.1622C22.5251 14.7375 21.9943 14.4065 21.4145 14.1883C20.8347 13.9701 20.2174 13.8691 19.5983 13.8911C18.7717 13.8911 17.9983 14.0333 17.305 14.3178C16.4447 14.6447 15.7008 15.2196 15.1676 15.9697C14.6343 16.7197 14.3356 17.6112 14.3094 18.5311C14.3094 19.1978 14.4339 19.7844 14.6917 20.2911C14.9406 20.7889 15.3139 21.1444 15.8206 21.3578C15.9094 21.3933 15.9894 21.3933 16.0517 21.3578C16.1139 21.3311 16.1583 21.2689 16.185 21.18L16.345 20.5755C16.3894 20.4422 16.3628 20.3089 16.2472 20.1755C15.9006 19.7744 15.7194 19.2564 15.7406 18.7267C15.7328 18.2462 15.8235 17.7692 16.007 17.325C16.1906 16.8809 16.4632 16.4791 16.8079 16.1443C17.1527 15.8095 17.5624 15.5489 18.0117 15.3785C18.461 15.208 18.9405 15.1314 19.4206 15.1533C20.3894 15.1533 21.145 15.42 21.6783 15.9444C22.2206 16.4778 22.4961 17.1622 22.4961 18.0067C22.4961 18.7178 22.3983 19.3755 22.2028 19.9711C22.0457 20.51 21.7623 21.0037 21.3761 21.4111C21.0206 21.7667 20.6028 21.9444 20.1317 21.9444C19.7494 21.9444 19.4383 21.8111 19.1894 21.5267C18.9494 21.2422 18.8694 20.9044 18.9583 20.5222C19.094 20.0471 19.2333 19.573 19.3761 19.1L19.5361 18.4511C19.5894 18.22 19.6161 18.0333 19.6161 17.8733C19.6161 17.5533 19.5272 17.2867 19.3672 17.0822C19.1894 16.8778 18.9494 16.7711 18.6294 16.7711C18.2294 16.7711 17.8917 16.9489 17.625 17.3222C17.3583 17.6867 17.2161 18.1489 17.2161 18.7089C17.2206 19.0555 17.2744 19.3997 17.3761 19.7311L17.4294 19.8644C16.8961 22.1578 16.585 23.5089 16.4694 23.9C16.3628 24.3889 16.3272 24.9667 16.3539 25.6244C15.0357 25.041 13.9146 24.0884 13.126 22.8818C12.3373 21.6751 11.9148 20.266 11.9094 18.8244C11.9094 16.78 12.6294 15.02 14.0783 13.58C14.7555 12.8774 15.5694 12.3209 16.4698 11.9448C17.3702 11.5688 18.3381 11.3811 19.3139 11.3933V11.4022Z" fill="#4B4B4B"/>
</svg>
