<svg width="26" height="26" viewBox="0 0 26 26" fill="none" xmlns="http://www.w3.org/2000/svg">
<path d="M25.5167 23.6742L19.5347 17.6922C21.0175 15.8844 21.9113 13.5688 21.9113 11.0449C21.9113 5.25586 17.214 0.558594 11.4249 0.558594C5.63079 0.558594 0.938599 5.25586 0.938599 11.0449C0.938599 16.834 5.63079 21.5312 11.4249 21.5312C13.9488 21.5312 16.2593 20.6426 18.0671 19.1598L24.0491 25.1367C24.4554 25.543 25.1105 25.543 25.5167 25.1367C25.923 24.7355 25.923 24.0754 25.5167 23.6742ZM11.4249 19.4441C6.7886 19.4441 3.02063 15.6762 3.02063 11.0449C3.02063 6.41367 6.7886 2.64062 11.4249 2.64062C16.0562 2.64062 19.8292 6.41367 19.8292 11.0449C19.8292 15.6762 16.0562 19.4441 11.4249 19.4441Z" fill="#53165C" stroke="#FD6506" stroke-width="0.0507812"/>
</svg>
