<svg width="18" height="18" viewBox="0 0 18 18" fill="none" xmlns="http://www.w3.org/2000/svg">
<path d="M3.46873 9.52991C4.62473 9.52991 5.64285 8.95975 6.27144 8.08661C6.87716 8.95791 7.88214 9.52991 9.02202 9.52991C10.1589 9.52991 11.1632 8.96087 11.7694 8.09337C12.3943 8.96233 13.4127 9.52991 14.5627 9.52991C16.7686 9.52991 18.437 7.39227 17.898 5.2526L16.8464 1.07737C16.6866 0.443013 16.1176 0 15.4629 0H2.52915C1.87446 0 1.30561 0.443013 1.14583 1.07741L0.100945 5.22777C-0.197165 6.41136 0.194676 7.44279 0.886704 8.38183V16.5675C0.886704 17.3534 1.52118 17.9927 2.30774 17.9927H15.6896C16.4761 17.9927 17.1109 17.3533 17.1109 16.5675V11.2589C17.1109 10.9145 16.8212 10.6353 16.4765 10.6353C16.1319 10.6353 15.8422 10.9145 15.8422 11.2589V16.5676C15.8422 16.6658 15.7879 16.7624 15.6896 16.7624H11.7669V11.8928C11.7669 11.5484 11.487 11.2647 11.1424 11.2647H6.85532C6.51065 11.2647 6.23073 11.5484 6.23073 11.8928V16.7624H2.30774C2.20944 16.7624 2.15542 16.6658 2.15542 16.5676V9.26809C2.53988 9.43918 3.00496 9.52991 3.46873 9.52991ZM12.382 1.23027H15.4629C15.5447 1.23027 15.6158 1.29401 15.6358 1.37329L16.6873 5.55263C17.0292 6.91032 15.9709 8.28076 14.5678 8.28076C13.3593 8.28076 12.382 7.29997 12.382 6.0918V1.23027ZM6.92272 1.23027H11.1518V6.0918C11.1518 7.26552 10.2335 8.28288 9.0349 8.28288C7.81666 8.28288 6.92272 7.25414 6.92272 6.07189V1.23027ZM7.49941 12.5334H10.4982V16.7624H7.49941V12.5334ZM1.3103 5.53207L2.35588 1.37337C2.37587 1.29405 2.44734 1.23031 2.52915 1.23031H5.654V6.07192C5.654 7.29055 4.66936 8.28203 3.45059 8.28288C2.03259 8.28199 0.964211 6.90639 1.3103 5.53207Z" fill="#CBCBCB"/>
</svg>
