<svg width="38" height="38" viewBox="0 0 38 38" fill="none" xmlns="http://www.w3.org/2000/svg">
<rect x="0.494995" y="0.719971" width="36.33" height="36.3333" rx="18.165" fill="#F5F5F5"/>
<rect x="0.494995" y="0.719971" width="36.33" height="36.3333" rx="18.165" stroke="#C2C2C2"/>
<path d="M25.6292 22.1117C23.7717 21.8054 22.9229 19.8817 22.8954 19.8192C22.8917 19.8079 22.8829 19.7879 22.8779 19.7767C22.8217 19.6642 22.7654 19.5054 22.8129 19.3929C22.8942 19.2004 23.2804 19.0779 23.5117 19.0042C23.5929 18.9779 23.6704 18.9542 23.7304 18.9304C24.2917 18.7079 24.5717 18.4179 24.5654 18.0654C24.5604 17.7817 24.3429 17.5217 24.0229 17.4092C23.9117 17.3617 23.7842 17.3379 23.6554 17.3379C23.5679 17.3379 23.4354 17.3504 23.3079 17.4092C23.0942 17.5092 22.9067 17.5629 22.7729 17.5692C22.7442 17.5679 22.7192 17.5654 22.6979 17.5617L22.7117 17.3417C22.7742 16.3467 22.8529 15.1067 22.5167 14.3529C21.5242 12.1317 19.4217 11.9592 18.8004 11.9592L18.5179 11.9617C17.8979 11.9617 15.7992 12.1342 14.8092 14.3542C14.4729 15.1079 14.5504 16.3467 14.6142 17.3429L14.6167 17.3804C14.6204 17.4417 14.6242 17.5029 14.6279 17.5617C14.4892 17.5867 14.2179 17.5404 13.9367 17.4092C13.5542 17.2304 12.8654 17.4667 12.7704 17.9667C12.7279 18.1879 12.7792 18.6079 13.5942 18.9292C13.6554 18.9542 13.7317 18.9779 13.8142 19.0042C14.0442 19.0779 14.4304 19.1992 14.5117 19.3929C14.5592 19.5054 14.5029 19.6642 14.4367 19.8004C14.4017 19.8817 13.5579 21.8054 11.6967 22.1117C11.4592 22.1504 11.2904 22.3604 11.3029 22.6029C11.3067 22.6667 11.3229 22.7304 11.3492 22.7929C11.5179 23.1892 12.1317 23.4617 13.2767 23.6479C13.2967 23.7154 13.3192 23.8154 13.3317 23.8704C13.3554 23.9842 13.3817 24.0992 13.4167 24.2192C13.4504 24.3329 13.5667 24.5967 13.9292 24.5967C14.0392 24.5967 14.1592 24.5729 14.2879 24.5479C14.4779 24.5104 14.7154 24.4642 15.0204 24.4642C15.1904 24.4642 15.3654 24.4792 15.5417 24.5079C15.8667 24.5617 16.1604 24.7704 16.5017 25.0104C17.0342 25.3879 17.6379 25.8142 18.5742 25.8142C18.5992 25.8142 18.6242 25.8129 18.6479 25.8117C18.6817 25.8129 18.7167 25.8142 18.7517 25.8142C19.6879 25.8142 20.2917 25.3867 20.8254 25.0104C21.1504 24.7792 21.4579 24.5629 21.7842 24.5079C21.9604 24.4792 22.1354 24.4642 22.3054 24.4642C22.5992 24.4642 22.8317 24.5017 23.0392 24.5429C23.1867 24.5717 23.3042 24.5854 23.4129 24.5854C23.6554 24.5854 23.8417 24.4467 23.9092 24.2142C23.9442 24.0967 23.9692 23.9829 23.9942 23.8679C24.0042 23.8254 24.0279 23.7179 24.0492 23.6467C25.1942 23.4604 25.8079 23.1879 25.9754 22.7954C26.0029 22.7329 26.0179 22.6679 26.0229 22.6004C26.0354 22.3617 25.8667 22.1517 25.6292 22.1117Z" fill="#4B4B4B"/>
</svg>
