<svg width="23" height="22" viewBox="0 0 23 22" fill="none" xmlns="http://www.w3.org/2000/svg">
<path d="M10.9499 12.1C7.61392 12.1 4.8999 9.38599 4.8999 6.05C4.8999 2.71401 7.61392 0 10.9499 0C14.2859 0 16.9999 2.71401 16.9999 6.05C16.9999 9.38599 14.2859 12.1 10.9499 12.1ZM10.9499 1.1C8.22046 1.1 5.9999 3.32056 5.9999 6.05C5.9999 8.77944 8.22046 11 10.9499 11C13.6793 11 15.8999 8.77944 15.8999 6.05C15.8999 3.32056 13.6793 1.1 10.9499 1.1Z" fill="#232323"/>
<path d="M19.75 22H2.15C1.2402 22 0.5 21.2598 0.5 20.35C0.5 20.2751 0.515297 18.4962 1.8475 16.72C2.62296 15.686 3.68471 14.8646 5.00319 14.2786C6.61359 13.5629 8.61439 13.2 10.95 13.2C13.2856 13.2 15.2864 13.5629 16.8968 14.2786C18.2153 14.8646 19.277 15.686 20.0525 16.72C21.3847 18.4962 21.4 20.2751 21.4 20.35C21.4 21.2598 20.6598 22 19.75 22ZM10.95 14.3C7.11461 14.3 4.28411 15.3482 2.76445 17.3312C1.62554 18.8174 1.60011 20.337 1.6 20.3522C1.6 20.6532 1.84675 20.9 2.15 20.9H19.75C20.0533 20.9 20.3 20.6532 20.3 20.35C20.2999 20.337 20.2745 18.8174 19.1356 17.3313C17.6159 15.3482 14.7854 14.3 10.95 14.3V14.3Z" fill="#232323"/>
</svg>
