<svg width="19" height="20" viewBox="0 0 19 20" fill="none" xmlns="http://www.w3.org/2000/svg">
<path d="M18.3612 1.97355C17.5012 2.79597 16.6421 3.61979 15.784 4.44503C14.5828 5.59782 13.381 6.75038 12.1786 7.9027C12.1189 7.95339 12.0561 8.00047 11.9908 8.04369C12.1014 8.12476 12.1698 8.17657 12.2396 8.22627C13.2723 8.96644 14.3082 9.70662 15.3349 10.4545C15.4539 10.5454 15.5425 10.6701 15.5891 10.8123C15.6641 11.059 15.5482 11.2642 15.2948 11.4041C14.5776 11.7993 13.8591 12.1927 13.1391 12.5841L2.82387 18.213C2.42911 18.4756 2.01695 18.7112 1.59025 18.9179C1.53536 18.9447 1.47767 18.9654 1.41825 18.9796C1.36439 18.993 1.30913 18.9998 1.25365 19C1.13146 19.0021 1.01222 18.9625 0.915632 18.8876C0.909288 18.883 0.903649 18.8777 0.897657 18.8725C0.895926 18.8711 0.894278 18.8697 0.892722 18.8682L0.872279 18.8488L0.861 18.8347C0.779208 18.7435 0.728806 18.6285 0.717195 18.5066C0.714717 18.4855 0.713422 18.4644 0.713318 18.4431C0.713293 18.3967 0.720062 18.3505 0.733408 18.306C0.769514 18.1981 0.833465 18.1015 0.918805 18.0262C1.7055 17.2743 2.49138 16.5206 3.27644 15.7651C4.86159 14.2312 6.44768 12.6981 8.03471 11.1658C8.0952 11.1158 8.15903 11.07 8.22574 11.0287C7.92932 10.8148 7.67942 10.634 7.42847 10.4542L4.62955 8.44515C4.19179 8.13075 4.22985 7.67854 4.71414 7.44133L17.6884 1.08358C18.1085 0.877738 18.5128 1.06631 18.5628 1.49349C18.5861 1.68946 18.5008 1.84032 18.3612 1.97355Z" fill="#FFE5E8" stroke="white" stroke-width="0.0352464"/>
</svg>
